<?xml version="1.0"?>
<svg xmlns="http://www.w3.org/2000/svg" xmlns:xlink="http://www.w3.org/1999/xlink" xmlns:svgjs="http://svgjs.com/svgjs" version="1.1" width="512" height="512" x="0" y="0" viewBox="0 -60 480 480" style="enable-background:new 0 0 512 512" xml:space="preserve" class=""><g><path xmlns="http://www.w3.org/2000/svg" d="m472 296v40c-.027344 8.824219-7.175781 15.972656-16 16h-432c-8.824219-.027344-15.972656-7.175781-16-16v-40h168v16c.027344 8.824219 7.175781 15.972656 16 16h96c8.824219-.027344 15.972656-7.175781 16-16v-16zm0 0" fill="#ae9afb" data-original="#78b9eb" style="" class=""/><path xmlns="http://www.w3.org/2000/svg" d="m376 136v56h56c0-30.929688-25.070312-56-56-56zm0 0" fill="#ae9afb" data-original="#78b9eb" style="" class=""/><path xmlns="http://www.w3.org/2000/svg" d="m408 216c0 30.929688-25.070312 56-56 56s-56-25.070312-56-56 25.070312-56 56-56v56zm0 0" fill="#ae9afb" data-original="#78b9eb" style="" class=""/><path xmlns="http://www.w3.org/2000/svg" d="m184 40h32v120h-32zm0 0" fill="#ae9afb" data-original="#78b9eb" style="" class=""/><path xmlns="http://www.w3.org/2000/svg" d="m120 64h32v96h-32zm0 0" fill="#ae9afb" data-original="#78b9eb" style="" class=""/><path xmlns="http://www.w3.org/2000/svg" d="m56 104h32v56h-32zm0 0" fill="#ae9afb" data-original="#78b9eb" style="" class=""/><g xmlns="http://www.w3.org/2000/svg" fill="#006df0"><path d="m472 288h-8v-264c0-13.253906-10.746094-24-24-24h-400c-13.253906 0-24 10.746094-24 24v264h-8c-4.417969 0-8 3.582031-8 8v40c0 13.253906 10.746094 24 24 24h432c13.253906 0 24-10.746094 24-24v-40c0-4.417969-3.582031-8-8-8zm-440-264c0-4.417969 3.582031-8 8-8h400c4.417969 0 8 3.582031 8 8v264h-416zm152 280h112v8c0 4.417969-3.582031 8-8 8h-96c-4.417969 0-8-3.582031-8-8zm280 32c0 4.417969-3.582031 8-8 8h-432c-4.417969 0-8-3.582031-8-8v-32h152v8c0 13.253906 10.746094 24 24 24h96c13.253906 0 24-10.746094 24-24v-8h152zm0 0" fill="#25007a" data-original="#006df0" style="" class=""/><path d="m224 40c0-4.417969-3.582031-8-8-8h-32c-4.417969 0-8 3.582031-8 8v112h-16v-88c0-4.417969-3.582031-8-8-8h-32c-4.417969 0-8 3.582031-8 8v88h-16v-48c0-4.417969-3.582031-8-8-8h-32c-4.417969 0-8 3.582031-8 8v48h-8v16h192v-16h-8zm-160 112v-40h16v40zm64 0v-80h16v80zm64 0v-104h16v104zm0 0" fill="#25007a" data-original="#006df0" style="" class=""/><path d="m408 208h-48v-48c0-4.417969-3.582031-8-8-8-35.347656 0-64 28.652344-64 64s28.652344 64 64 64 64-28.652344 64-64c0-4.417969-3.582031-8-8-8zm-56 56c-24.96875.023438-45.789062-19.101562-47.875-43.984375-2.089844-24.886719 15.25-47.210937 39.875-51.351563v47.335938c0 4.417969 3.582031 8 8 8h47.335938c-3.933594 23.082031-23.921876 39.96875-47.335938 40zm0 0" fill="#25007a" data-original="#006df0" style="" class=""/><path d="m376 128c-4.417969 0-8 3.582031-8 8v56c0 4.417969 3.582031 8 8 8h56c4.417969 0 8-3.582031 8-8-.039062-35.328125-28.671875-63.960938-64-64zm8 56v-39.335938c20.128906 3.441407 35.894531 19.207032 39.335938 39.335938zm0 0" fill="#25007a" data-original="#006df0" style="" class=""/><path d="m216 184c-8.835938 0-16 7.164062-16 16 .019531 1.792969.34375 3.570312.960938 5.257812l-30.03125 35.039063c-.964844-.1875-1.945313-.289063-2.929688-.296875-2.277344.007812-4.527344.507812-6.59375 1.464844l-33.558594-24c.046875-.503906.152344-.984375.152344-1.496094.050781-6.101562-3.371094-11.699219-8.824219-14.433594-5.453125-2.738281-11.988281-2.132812-16.847656 1.554688s-7.199219 9.816406-6.03125 15.804687l-35.039063 30.066407c-1.6875-.617188-3.464843-.941407-5.257812-.960938-6.828125-.0625-12.960938 4.175781-15.316406 10.585938-2.351563 6.410156-.417969 13.609374 4.832031 17.980468 5.25 4.367188 12.679687 4.964844 18.558594 1.488282 5.875-3.480469 8.933593-10.277344 7.628906-16.984376l35.039063-30.03125c3.859374 1.4375 8.128906 1.253907 11.851562-.503906l33.558594 24c-.046875.503906-.152344.984375-.152344 1.496094 0 8.835938 7.164062 16 16 16s16-7.164062 16-16c-.019531-1.792969-.34375-3.570312-.960938-5.253906l30.03125-35.042969c5.960938 1.097656 12.03125-1.265625 15.675782-6.109375 3.648437-4.839844 4.246094-11.324219 1.546875-16.75s-8.234375-8.863281-14.292969-8.875zm0 0" fill="#25007a" data-original="#006df0" style="" class=""/><path d="m264 48h16v16h-16zm0 0" fill="#25007a" data-original="#006df0" style="" class=""/><path d="m296 48h120v16h-120zm0 0" fill="#25007a" data-original="#006df0" style="" class=""/><path d="m264 80h32v16h-32zm0 0" fill="#25007a" data-original="#006df0" style="" class=""/><path d="m312 80h64v16h-64zm0 0" fill="#25007a" data-original="#006df0" style="" class=""/><path d="m264 112h32v16h-32zm0 0" fill="#25007a" data-original="#006df0" style="" class=""/></g></g></svg>
